<?xml version="1.0" encoding="utf-8"?>
<!-- Generator: Adobe Illustrator 15.0.0, SVG Export Plug-In  -->
<!DOCTYPE svg PUBLIC "-//W3C//DTD SVG 1.1//EN" "http://www.w3.org/Graphics/SVG/1.1/DTD/svg11.dtd" [
	<!ENTITY ns_flows "http://ns.adobe.com/Flows/1.0/">
]>
<svg version="1.1"
	 xmlns="http://www.w3.org/2000/svg" xmlns:xlink="http://www.w3.org/1999/xlink" xmlns:a="http://ns.adobe.com/AdobeSVGViewerExtensions/3.0/"
	 x="0px" y="0px" width="842px" height="227px" viewBox="-21.539 -28.084 842 227"
	 overflow="visible" enable-background="new -21.539 -28.084 842 227" xml:space="preserve">
<defs>
</defs>
<g>
	<g>
		<path fill="#3E2680" d="M264.982,4.894h16.296l-25.877,76.121h-17.598L211.979,4.894h16.296l14.318,45.297
			c0.798,2.674,1.622,5.789,2.473,9.346c0.851,3.559,1.38,6.031,1.588,7.419c0.382-3.193,1.684-8.781,3.905-16.766L264.982,4.894z"
			/>
		<path fill="#3E2680" d="M287.332,7.758c0-5.172,2.88-7.758,8.644-7.758c5.762,0,8.643,2.585,8.643,7.758
			c0,2.465-0.72,4.382-2.161,5.753c-1.441,1.372-3.601,2.057-6.482,2.057C290.212,15.567,287.332,12.964,287.332,7.758z
			 M303.89,81.015h-15.881V22.805h15.881V81.015z"/>
		<path fill="#3E2680" d="M359.563,63.729c0,5.97-2.075,10.518-6.222,13.642c-4.148,3.124-10.353,4.686-18.613,4.686
			c-4.236,0-7.845-0.287-10.83-0.859c-2.985-0.573-5.779-1.414-8.383-2.525V65.551c2.949,1.389,6.274,2.551,9.971,3.488
			s6.951,1.406,9.762,1.406c5.762,0,8.644-1.666,8.644-4.998c0-1.25-0.383-2.265-1.146-3.046c-0.765-0.781-2.083-1.666-3.957-2.655
			c-1.875-0.99-4.374-2.143-7.497-3.463c-4.478-1.873-7.767-3.609-9.867-5.207c-2.1-1.596-3.628-3.428-4.582-5.492
			c-0.955-2.065-1.432-4.608-1.432-7.628c0-5.171,2.004-9.171,6.014-12.001c4.009-2.828,9.692-4.244,17.052-4.244
			c7.01,0,13.831,1.529,20.461,4.582l-4.79,11.455c-2.916-1.25-5.641-2.273-8.174-3.072c-2.535-0.798-5.121-1.198-7.758-1.198
			c-4.686,0-7.029,1.268-7.029,3.801c0,1.423,0.755,2.655,2.266,3.696c1.51,1.042,4.815,2.586,9.918,4.634
			c4.546,1.84,7.879,3.558,9.997,5.154c2.117,1.597,3.679,3.437,4.686,5.519C359.06,58.365,359.563,60.848,359.563,63.729z"/>
		<path fill="#3E2680" d="M369.678,7.758c0-5.172,2.88-7.758,8.643-7.758c5.761,0,8.642,2.585,8.642,7.758
			c0,2.465-0.72,4.382-2.16,5.753c-1.441,1.372-3.601,2.057-6.482,2.057C372.559,15.567,369.678,12.964,369.678,7.758z
			 M386.235,81.015h-15.88V22.805h15.88V81.015z"/>
		<path fill="#3E2680" d="M454.195,51.805c0,9.478-2.497,16.888-7.496,22.232c-5,5.346-11.958,8.019-20.879,8.019
			c-5.588,0-10.519-1.224-14.786-3.671c-4.271-2.447-7.55-5.962-9.841-10.543c-2.291-4.582-3.436-9.927-3.436-16.037
			c0-9.509,2.48-16.903,7.446-22.18c4.963-5.276,11.939-7.914,20.93-7.914c5.588,0,10.518,1.216,14.787,3.646
			c4.271,2.43,7.549,5.918,9.841,10.465C453.05,40.369,454.195,45.697,454.195,51.805z M413.949,51.805
			c0,5.763,0.945,10.119,2.839,13.07c1.89,2.951,4.972,4.424,9.239,4.424c4.236,0,7.281-1.465,9.139-4.399
			c1.857-2.932,2.786-7.296,2.786-13.095c0-5.76-0.938-10.082-2.812-12.963c-1.875-2.881-4.945-4.322-9.215-4.322
			c-4.234,0-7.289,1.432-9.163,4.296C414.887,41.679,413.949,46.009,413.949,51.805z"/>
		<path fill="#3E2680" d="M506.33,63.729c0,5.97-2.076,10.518-6.223,13.642c-4.147,3.124-10.354,4.686-18.614,4.686
			c-4.235,0-7.845-0.287-10.829-0.859c-2.986-0.573-5.779-1.414-8.384-2.525V65.551c2.95,1.389,6.275,2.551,9.973,3.488
			c3.695,0.938,6.95,1.406,9.762,1.406c5.761,0,8.642-1.666,8.642-4.998c0-1.25-0.382-2.265-1.145-3.046
			c-0.765-0.781-2.083-1.666-3.957-2.655c-1.875-0.99-4.375-2.143-7.497-3.463c-4.478-1.873-7.767-3.609-9.866-5.207
			c-2.102-1.596-3.629-3.428-4.582-5.492c-0.956-2.065-1.431-4.608-1.431-7.628c0-5.171,2.003-9.171,6.013-12.001
			c4.008-2.828,9.691-4.244,17.051-4.244c7.012,0,13.831,1.529,20.462,4.582l-4.79,11.455c-2.916-1.25-5.642-2.273-8.175-3.072
			c-2.533-0.798-5.119-1.198-7.758-1.198c-4.685,0-7.029,1.268-7.029,3.801c0,1.423,0.755,2.655,2.266,3.696
			c1.511,1.042,4.817,2.586,9.919,4.634c4.547,1.84,7.878,3.558,9.996,5.154c2.117,1.597,3.68,3.437,4.687,5.519
			C505.824,58.365,506.33,60.848,506.33,63.729z"/>
		<path fill="#3E2680" d="M540.759,82.056c-18.118,0-27.178-9.945-27.178-29.834c0-9.893,2.465-17.45,7.395-22.676
			c4.927-5.223,11.992-7.835,21.188-7.835c6.734,0,12.776,1.32,18.12,3.957l-4.688,12.288c-2.497-1.005-4.823-1.83-6.975-2.473
			c-2.153-0.641-4.306-0.963-6.458-0.963c-8.26,0-12.391,5.867-12.391,17.599c0,11.386,4.131,17.078,12.391,17.078
			c3.055,0,5.886-0.407,8.488-1.223c2.604-0.815,5.207-2.091,7.81-3.827v13.589c-2.568,1.632-5.162,2.76-7.784,3.385
			C548.058,81.743,544.75,82.056,540.759,82.056z"/>
		<path fill="#3E2680" d="M602.836,21.711c2.152,0,3.939,0.156,5.363,0.47l-1.197,14.89c-1.285-0.347-2.846-0.52-4.687-0.52
			c-5.068,0-9.015,1.301-11.845,3.904c-2.83,2.604-4.243,6.249-4.243,10.935v29.625h-15.88V22.805h12.027l2.343,9.788h0.781
			c1.803-3.262,4.244-5.892,7.314-7.888C595.886,22.709,599.228,21.711,602.836,21.711z"/>
		<path fill="#3E2680" d="M643.515,82.056c-9.371,0-16.695-2.586-21.972-7.758c-5.277-5.172-7.914-12.496-7.914-21.972
			c0-9.754,2.438-17.293,7.315-22.622c4.876-5.328,11.619-7.993,20.229-7.993c8.226,0,14.628,2.343,19.211,7.03
			c4.582,4.685,6.874,11.159,6.874,19.42v7.706h-37.541c0.173,4.513,1.511,8.036,4.009,10.569c2.501,2.534,6.006,3.801,10.519,3.801
			c3.506,0,6.819-0.365,9.945-1.094c3.122-0.729,6.385-1.891,9.787-3.489v12.289c-2.777,1.389-5.746,2.421-8.903,3.098
			C651.914,81.717,648.062,82.056,643.515,82.056z M641.274,33.01c-3.365,0-6.004,1.067-7.913,3.202
			c-1.908,2.134-3.002,5.163-3.279,9.085h22.284c-0.069-3.922-1.093-6.951-3.072-9.085C647.315,34.077,644.644,33.01,641.274,33.01z
			"/>
		<path fill="#3E2680" d="M704.917,82.056c-9.373,0-16.698-2.586-21.973-7.758c-5.277-5.172-7.914-12.496-7.914-21.972
			c0-9.754,2.438-17.293,7.313-22.622c4.876-5.328,11.62-7.993,20.229-7.993c8.225,0,14.629,2.343,19.212,7.03
			c4.579,4.685,6.871,11.159,6.871,19.42v7.706h-37.539c0.174,4.513,1.512,8.036,4.009,10.569c2.5,2.534,6.006,3.801,10.52,3.801
			c3.505,0,6.818-0.365,9.944-1.094c3.122-0.729,6.385-1.891,9.786-3.489v12.289c-2.777,1.389-5.747,2.421-8.901,3.098
			C713.315,81.717,709.462,82.056,704.917,82.056z M702.676,33.01c-3.368,0-6.005,1.067-7.913,3.202
			c-1.909,2.134-3.004,5.163-3.28,9.085h22.283c-0.07-3.922-1.093-6.951-3.071-9.085C708.715,34.077,706.043,33.01,702.676,33.01z"
			/>
		<path fill="#3E2680" d="M793.701,81.015h-15.88v-34c0-4.199-0.748-7.349-2.238-9.45c-1.493-2.101-3.871-3.15-7.134-3.15
			c-4.444,0-7.652,1.484-9.633,4.452c-1.979,2.968-2.965,7.888-2.965,14.761v27.387h-15.883V22.805h12.132l2.135,7.445h0.886
			c1.769-2.811,4.209-4.938,7.313-6.378c3.108-1.44,6.641-2.161,10.598-2.161c6.769,0,11.905,1.831,15.411,5.494
			c3.504,3.662,5.258,8.947,5.258,15.854V81.015z"/>
	</g>
</g>
<path fill="#EC1164" d="M147.992,47.97l-30.226-19.545c-1.711-1.098-3.879-1.178-5.656-0.21c-1.777,0.968-2.879,2.824-2.879,4.857
	v39.08c0,2.033,1.103,3.889,2.879,4.856c0.822,0.449,1.739,0.673,2.646,0.673c1.047,0,2.085-0.294,3.01-0.883l30.226-19.541
	c1.57-1.023,2.524-2.767,2.524-4.646S149.562,48.99,147.992,47.97z"/>
<path fill="#00ADEE" d="M48.396,159.85c-0.496,0.037-0.992,0.062-1.478,0.062c-8.6,0-15.94-6.586-16.697-15.323L20.656,35.269
	L7.999,37.498c-5.254,0.927-8.77,5.957-7.854,11.21l22.186,125.773c0.813,4.637,4.824,7.998,9.508,7.998
	c0.561,0,1.131-0.046,1.702-0.145l125.773-22.181c2.552-0.449,4.768-1.865,6.245-3.979c1.393-1.977,1.944-4.348,1.636-6.727
	L48.396,159.85z"/>
<path fill="#3E2680" d="M45.674,5.314L34.952,6.254c-5.31,0.458-9.246,5.166-8.788,10.481l11.135,127.231
	c0.439,4.954,4.666,8.835,9.62,8.835c0.281,0,0.57-0.014,0.861-0.037l127.241-11.13c4.59-0.407,8.151-3.979,8.741-8.383H62.457
	c-9.265,0-16.783-7.512-16.783-16.78V5.314z"/>
<path fill="#3E2680" d="M245.958,118.336h8.377l-2.569,12.042c-1.221,0.436-2.413,0.756-3.575,0.958
	c-1.162,0.2-2.462,0.302-3.902,0.302c-2.846,0-5.055-0.797-6.625-2.388c-1.57-1.594-2.356-3.846-2.356-6.758
	c0-2.88,0.559-5.515,1.676-7.903c1.119-2.388,2.7-4.241,4.745-5.562c2.046-1.318,4.371-1.979,6.979-1.979
	c1.211,0,2.373,0.113,3.485,0.336c1.113,0.225,2.23,0.602,3.354,1.137l-1.472,3.321c-1.898-0.938-3.72-1.407-5.465-1.407
	c-1.724,0-3.289,0.493-4.695,1.48c-1.408,0.986-2.517,2.395-3.33,4.222c-0.812,1.826-1.22,3.858-1.22,6.094
	c0,1.996,0.485,3.508,1.458,4.533c0.97,1.025,2.35,1.536,4.139,1.536c1.188,0,2.36-0.18,3.517-0.539l1.309-6.07h-4.532
	L245.958,118.336z"/>
<path fill="#3E2680" d="M266.139,131.638c-2.148,0-3.826-0.605-5.031-1.816c-1.205-1.21-1.809-2.901-1.809-5.07
	c0-2.161,0.423-4.171,1.269-6.03c0.845-1.859,1.99-3.297,3.436-4.311c1.444-1.015,3.062-1.522,4.85-1.522
	c1.757,0,3.123,0.396,4.099,1.187c0.976,0.791,1.465,1.912,1.465,3.361c0,1.987-0.909,3.538-2.725,4.656
	c-1.815,1.116-4.403,1.677-7.763,1.677h-0.704l-0.032,0.507v0.476c0,1.209,0.308,2.158,0.924,2.845
	c0.617,0.688,1.535,1.03,2.757,1.03c0.785,0,1.565-0.103,2.339-0.31c0.774-0.206,1.69-0.562,2.749-1.062v3.059
	c-1.047,0.481-2.01,0.821-2.888,1.023C268.198,131.537,267.219,131.638,266.139,131.638z M268.626,115.834
	c-1.047,0-2.031,0.469-2.953,1.406c-0.921,0.938-1.584,2.176-1.988,3.714h0.475c2.05,0,3.654-0.291,4.811-0.875
	c1.156-0.584,1.734-1.411,1.734-2.479c0-0.556-0.175-0.989-0.523-1.3C269.831,115.989,269.313,115.834,268.626,115.834z"/>
<path fill="#3E2680" d="M289.921,125.748c0,1.888-0.644,3.342-1.931,4.36c-1.287,1.021-3.076,1.53-5.366,1.53
	c-2.073,0-3.829-0.364-5.268-1.097v-3.32c1.668,0.98,3.37,1.472,5.104,1.472c1.059,0,1.914-0.218,2.568-0.654
	c0.655-0.436,0.983-1.03,0.983-1.784c0-0.557-0.188-1.032-0.565-1.432c-0.376-0.397-1.148-0.928-2.314-1.594
	c-1.365-0.731-2.326-1.476-2.889-2.234c-0.562-0.758-0.842-1.654-0.842-2.69c0-1.69,0.583-3.017,1.75-3.978
	c1.168-0.959,2.743-1.438,4.729-1.438c2.138,0,4.025,0.458,5.661,1.375l-1.243,2.88c-1.527-0.829-2.978-1.245-4.352-1.245
	c-0.796,0-1.442,0.182-1.938,0.542c-0.497,0.357-0.744,0.861-0.744,1.503c0,0.493,0.18,0.927,0.54,1.309
	c0.359,0.384,1.096,0.874,2.209,1.475c1.145,0.644,1.958,1.193,2.438,1.653c0.48,0.455,0.846,0.955,1.096,1.494
	C289.795,124.416,289.921,125.04,289.921,125.748z"/>
<path fill="#3E2680" d="M301.431,128.53c0.742,0,1.564-0.169,2.47-0.507v2.912c-0.382,0.185-0.9,0.348-1.555,0.489
	c-0.654,0.144-1.309,0.214-1.963,0.214c-2.989,0-4.482-1.347-4.482-4.042c0-0.621,0.086-1.334,0.261-2.142l1.979-9.327h-2.65
	l0.344-1.801l3.108-1.341l2.111-3.795h2.388l-0.85,4.024h4.564l-0.638,2.912h-4.531l-1.997,9.359
	c-0.142,0.6-0.212,1.102-0.212,1.505c0,0.468,0.136,0.843,0.409,1.121C300.459,128.39,300.875,128.53,301.431,128.53z"/>
<path fill="#3E2680" d="M312.697,131.31h-3.862l3.862-18.095h3.844L312.697,131.31z M313.465,108.766c0-0.741,0.212-1.343,0.638-1.8
	s1.025-0.688,1.8-0.688c0.578,0,1.047,0.146,1.406,0.434c0.361,0.289,0.541,0.729,0.541,1.316c0,0.775-0.218,1.387-0.654,1.834
	c-0.437,0.447-1.009,0.669-1.718,0.669c-0.578,0-1.059-0.141-1.44-0.425C313.656,109.822,313.465,109.376,313.465,108.766z"/>
<path fill="#3E2680" d="M336.707,119.989c0,2.204-0.397,4.208-1.194,6.013c-0.797,1.806-1.89,3.19-3.281,4.155
	c-1.39,0.966-2.991,1.448-4.801,1.448c-2.093,0-3.757-0.624-4.99-1.873c-1.233-1.25-1.85-2.948-1.85-5.098
	c0-2.169,0.39-4.16,1.17-5.97c0.78-1.812,1.873-3.221,3.28-4.23c1.407-1.007,3.032-1.512,4.875-1.512c2.127,0,3.79,0.631,4.99,1.897
	C336.107,116.084,336.707,117.806,336.707,119.989z M332.829,119.827c0-1.168-0.268-2.082-0.801-2.741
	c-0.535-0.659-1.298-0.99-2.291-0.99c-1.014,0-1.921,0.39-2.724,1.169c-0.802,0.78-1.422,1.839-1.865,3.175
	c-0.441,1.337-0.662,2.763-0.662,4.278c0,1.211,0.27,2.138,0.811,2.781c0.539,0.645,1.338,0.965,2.396,0.965
	c0.981,0,1.865-0.371,2.65-1.112c0.785-0.74,1.396-1.779,1.832-3.115C332.611,122.899,332.829,121.428,332.829,119.827z"/>
<path fill="#3E2680" d="M351.522,131.31l2.324-10.995c0.196-0.981,0.294-1.694,0.294-2.142c0-1.43-0.704-2.144-2.111-2.144
	c-0.785,0-1.559,0.311-2.323,0.932c-0.764,0.622-1.451,1.521-2.061,2.692c-0.611,1.173-1.069,2.501-1.374,3.984l-1.604,7.672h-3.861
	l3.861-18.095h3.01l-0.343,3.354h0.148c0.905-1.286,1.838-2.221,2.797-2.805c0.96-0.584,2.002-0.876,3.125-0.876
	c1.461,0,2.593,0.414,3.394,1.243c0.802,0.829,1.203,2.008,1.203,3.534c0,0.753-0.125,1.739-0.376,2.962l-2.241,10.683H351.522z"/>
<path fill="#3E2680" d="M382.249,112.888c1.953,0,3.414,0.972,4.385,2.914h0.131c0.142-1.594,0.344-2.957,0.605-4.092l1.243-5.857
	h3.813l-5.399,25.457h-3.01l0.311-2.879h-0.114c-0.96,1.155-1.887,1.98-2.782,2.47c-0.894,0.492-1.844,0.737-2.847,0.737
	c-1.56,0-2.781-0.554-3.665-1.661c-0.883-1.107-1.325-2.674-1.325-4.705c0-2.234,0.39-4.323,1.17-6.266
	c0.78-1.94,1.824-3.446,3.133-4.514C379.207,113.423,380.657,112.888,382.249,112.888z M380.057,128.53
	c0.896,0,1.781-0.446,2.659-1.343c0.877-0.893,1.582-2.061,2.111-3.5c0.528-1.439,0.792-2.896,0.792-4.369
	c0-0.991-0.236-1.787-0.711-2.39c-0.475-0.598-1.197-0.898-2.168-0.898c-0.926,0-1.793,0.42-2.601,1.261
	c-0.807,0.839-1.45,1.988-1.93,3.45c-0.48,1.464-0.72,2.952-0.72,4.468C377.488,127.422,378.344,128.53,380.057,128.53z"/>
<path fill="#3E2680" d="M402.446,107.391l0.133,0.36c-0.404,0.905-1.007,2.092-1.81,3.559c-0.8,1.467-1.649,2.893-2.543,4.277
	h-2.913c0.469-1.036,1.047-2.427,1.734-4.172s1.189-3.086,1.506-4.024H402.446z"/>
<path fill="#3E2680" d="M408.166,131.638c-1.538,0-2.754-0.554-3.648-1.661s-1.342-2.664-1.342-4.671
	c0-2.202,0.379-4.265,1.139-6.185c0.757-1.92,1.802-3.438,3.132-4.557c1.33-1.116,2.791-1.677,4.385-1.677
	c1.058,0,1.969,0.249,2.731,0.745c0.764,0.496,1.359,1.218,1.784,2.169h0.163l1.014-2.587h2.947l-3.861,18.095h-2.979l0.344-2.879
	h-0.1C412.154,130.568,410.249,131.638,408.166,131.638z M409.574,128.53c0.894,0,1.771-0.423,2.635-1.268
	c0.86-0.847,1.57-1.977,2.127-3.395c0.555-1.42,0.832-2.968,0.832-4.647c0-0.959-0.255-1.73-0.768-2.315
	c-0.514-0.583-1.183-0.875-2.014-0.875c-0.927,0-1.799,0.42-2.617,1.261c-0.818,0.839-1.473,1.981-1.965,3.427
	c-0.489,1.445-0.734,2.942-0.734,4.491c0,1.112,0.222,1.944,0.662,2.493C408.175,128.255,408.788,128.53,409.574,128.53z"/>
<path fill="#3E2680" d="M421.575,139.359c-0.981,0-1.794-0.124-2.438-0.376v-3.107c0.698,0.219,1.321,0.327,1.865,0.327
	c1.451,0,2.415-1.118,2.896-3.354l3.551-16.722h-2.93l0.343-1.733l3.176-1.244l0.343-1.505c0.479-2.159,1.213-3.695,2.201-4.606
	c0.987-0.911,2.386-1.365,4.198-1.365c1.253,0,2.402,0.234,3.45,0.704l-0.997,2.879c-0.809-0.306-1.55-0.458-2.226-0.458
	c-0.754,0-1.355,0.235-1.809,0.703c-0.453,0.47-0.799,1.238-1.04,2.308l-0.294,1.406h7.165l0.379-1.57
	c0.479-2.15,1.205-3.682,2.175-4.598c0.971-0.916,2.365-1.374,4.188-1.374c1.276,0,2.438,0.234,3.485,0.704l-1.015,2.879
	c-0.807-0.306-1.543-0.458-2.209-0.458c-0.774,0-1.383,0.235-1.823,0.703c-0.442,0.47-0.784,1.238-1.023,2.308l-0.296,1.406h3.748
	l-0.639,2.912h-3.713l-3.647,17.229c-0.471,2.095-1.198,3.617-2.186,4.573c-0.987,0.955-2.272,1.43-3.853,1.43
	c-1.036,0-1.85-0.124-2.438-0.376v-3.107c0.654,0.219,1.276,0.327,1.865,0.327c1.483,0,2.443-1.118,2.88-3.354l3.518-16.722h-7.165
	l-3.649,17.229c-0.438,2.061-1.151,3.576-2.144,4.549C424.476,138.875,423.179,139.359,421.575,139.359z M449.797,131.31h-3.828
	l3.861-18.095h3.812L449.797,131.31z M450.601,108.766c0-0.741,0.212-1.343,0.637-1.8c0.426-0.457,1.015-0.688,1.767-0.688
	c0.589,0,1.062,0.146,1.416,0.434c0.354,0.289,0.529,0.729,0.529,1.316c0,0.775-0.213,1.387-0.646,1.834
	c-0.43,0.447-1.005,0.669-1.726,0.669c-0.556,0-1.024-0.141-1.407-0.425C450.79,109.822,450.601,109.376,450.601,108.766z"/>
<path fill="#3E2680" d="M464.465,131.638c-2.137,0-3.794-0.578-4.973-1.734c-1.177-1.156-1.766-2.809-1.766-4.957
	c0-2.259,0.4-4.311,1.202-6.161c0.8-1.85,1.926-3.292,3.379-4.334c1.449-1.044,3.097-1.563,4.939-1.563
	c1.788,0,3.409,0.333,4.861,0.999l-1.146,3.009c-1.33-0.578-2.536-0.866-3.616-0.866c-1.637,0-3,0.836-4.092,2.512
	c-1.09,1.675-1.634,3.742-1.634,6.21c0,1.209,0.305,2.142,0.915,2.797c0.611,0.653,1.457,0.981,2.537,0.981
	c0.807,0,1.562-0.121,2.266-0.36c0.703-0.24,1.408-0.534,2.119-0.884v3.191C467.929,131.251,466.266,131.638,464.465,131.638z"/>
<path fill="#3E2680" d="M485.057,131.31l2.323-10.995c0.197-0.981,0.296-1.674,0.296-2.077c0-1.472-0.704-2.208-2.113-2.208
	c-1.22,0-2.363,0.682-3.426,2.045c-1.063,1.364-1.84,3.228-2.332,5.595l-1.603,7.641h-3.86l5.398-25.457h3.845l-0.933,4.286
	c-0.295,1.376-0.692,2.973-1.194,4.794l-0.311,1.229h0.129c0.918-1.156,1.837-1.992,2.758-2.504c0.922-0.513,1.89-0.77,2.904-0.77
	c1.483,0,2.62,0.423,3.411,1.269c0.791,0.845,1.187,2.053,1.187,3.624c0,0.829-0.126,1.777-0.377,2.847l-2.273,10.683H485.057z"/>
<path fill="#3E2680" d="M501.639,131.638c-1.537,0-2.756-0.554-3.65-1.661c-0.892-1.107-1.34-2.664-1.34-4.671
	c0-2.202,0.379-4.265,1.137-6.185c0.76-1.92,1.804-3.438,3.133-4.557c1.331-1.116,2.792-1.677,4.387-1.677
	c1.058,0,1.968,0.249,2.731,0.745c0.763,0.496,1.358,1.218,1.783,2.169h0.163l1.014-2.587h2.946l-3.861,18.095h-2.978l0.342-2.879
	h-0.096C505.625,130.568,503.722,131.638,501.639,131.638z M503.046,128.53c0.894,0,1.773-0.423,2.634-1.268
	c0.861-0.847,1.57-1.977,2.128-3.395c0.556-1.42,0.832-2.968,0.832-4.647c0-0.959-0.254-1.73-0.766-2.315
	c-0.516-0.583-1.186-0.875-2.014-0.875c-0.928,0-1.802,0.42-2.618,1.261c-0.817,0.839-1.473,1.981-1.963,3.427
	s-0.736,2.942-0.736,4.491c0,1.112,0.222,1.944,0.662,2.493C501.646,128.255,502.261,128.53,503.046,128.53z"/>
<path fill="#3E2680" d="M534.991,113.215l-0.507,2.24l-3.143,0.542c0.306,0.632,0.459,1.38,0.459,2.24
	c0,2.104-0.648,3.777-1.947,5.015c-1.298,1.238-3.038,1.855-5.218,1.855c-0.569,0-1.069-0.041-1.507-0.129
	c-1.211,0.437-1.815,1.004-1.815,1.702c0,0.414,0.173,0.697,0.515,0.851c0.345,0.152,0.844,0.272,1.498,0.36l2.076,0.262
	c1.921,0.241,3.296,0.716,4.125,1.431c0.827,0.716,1.243,1.736,1.243,3.067c0,2.138-0.824,3.791-2.47,4.959
	c-1.648,1.166-3.989,1.748-7.02,1.748c-2.215,0-3.931-0.407-5.146-1.226c-1.216-0.818-1.824-1.942-1.824-3.371
	c0-1.123,0.378-2.093,1.137-2.912c0.759-0.817,1.978-1.51,3.657-2.078c-0.83-0.489-1.243-1.182-1.243-2.078
	c0-0.751,0.252-1.403,0.76-1.954c0.507-0.551,1.308-1.083,2.398-1.595c-1.475-0.883-2.209-2.258-2.209-4.123
	c0-2.138,0.665-3.86,2.001-5.171c1.339-1.309,3.102-1.963,5.295-1.963c0.873,0,1.744,0.109,2.618,0.327H534.991z M521.592,131.017
	c-1.223,0.195-2.159,0.582-2.814,1.161c-0.654,0.578-0.981,1.292-0.981,2.144c0,0.709,0.302,1.272,0.908,1.691
	c0.604,0.422,1.53,0.631,2.773,0.631c1.776,0,3.168-0.294,4.171-0.884c1.004-0.589,1.507-1.434,1.507-2.536
	c0-0.555-0.245-0.992-0.738-1.308c-0.488-0.317-1.352-0.54-2.585-0.67L521.592,131.017z M526.009,115.456
	c-0.71,0-1.33,0.211-1.865,0.632c-0.534,0.419-0.949,0.992-1.244,1.716c-0.294,0.727-0.439,1.521-0.439,2.381
	c0,0.775,0.192,1.372,0.579,1.794c0.388,0.418,0.941,0.628,1.661,0.628c0.708,0,1.322-0.213,1.84-0.638
	c0.519-0.425,0.922-1.009,1.212-1.75c0.287-0.742,0.435-1.554,0.435-2.438C528.187,116.232,527.46,115.456,526.009,115.456z"/>
<path fill="#3E2680" d="M543.899,131.638c-2.147,0-3.824-0.605-5.028-1.816c-1.207-1.21-1.81-2.901-1.81-5.07
	c0-2.161,0.423-4.171,1.267-6.03c0.847-1.859,1.992-3.297,3.438-4.311c1.445-1.015,3.062-1.522,4.851-1.522
	c1.755,0,3.123,0.396,4.099,1.187s1.465,1.912,1.465,3.361c0,1.987-0.909,3.538-2.726,4.656c-1.814,1.116-4.403,1.677-7.763,1.677
	h-0.703l-0.032,0.507v0.476c0,1.209,0.309,2.158,0.925,2.845c0.614,0.688,1.535,1.03,2.756,1.03c0.785,0,1.566-0.103,2.34-0.31
	c0.774-0.206,1.691-0.562,2.749-1.062v3.059c-1.047,0.481-2.01,0.821-2.888,1.023C545.959,131.537,544.981,131.638,543.899,131.638z
	 M546.387,115.834c-1.047,0-2.03,0.469-2.953,1.406c-0.921,0.938-1.585,2.176-1.985,3.714h0.474c2.051,0,3.652-0.291,4.808-0.875
	c1.158-0.584,1.735-1.411,1.735-2.479c0-0.556-0.174-0.989-0.522-1.3C547.593,115.989,547.074,115.834,546.387,115.834z"/>
<path fill="#3E2680" d="M575.562,112.888c1.95,0,3.412,0.972,4.383,2.914h0.131c0.143-1.594,0.343-2.957,0.605-4.092l1.244-5.857
	h3.812l-5.399,25.457h-3.01l0.31-2.879h-0.114c-0.96,1.155-1.888,1.98-2.781,2.47c-0.895,0.492-1.843,0.737-2.847,0.737
	c-1.56,0-2.78-0.554-3.665-1.661c-0.884-1.107-1.325-2.674-1.325-4.705c0-2.234,0.39-4.323,1.169-6.266
	c0.78-1.94,1.824-3.446,3.134-4.514C572.517,113.423,573.968,112.888,575.562,112.888z M573.366,128.53
	c0.896,0,1.782-0.446,2.66-1.343c0.879-0.893,1.582-2.061,2.11-3.5c0.53-1.439,0.793-2.896,0.793-4.369
	c0-0.991-0.235-1.787-0.711-2.39c-0.474-0.598-1.196-0.898-2.168-0.898c-0.927,0-1.794,0.42-2.603,1.261
	c-0.807,0.839-1.45,1.988-1.929,3.45c-0.481,1.464-0.72,2.952-0.72,4.468C570.8,127.422,571.655,128.53,573.366,128.53z"/>
<path fill="#3E2680" d="M588.38,113.215h3.797l1.03,8.688c0.098,0.676,0.187,1.628,0.262,2.855c0.076,1.227,0.114,2.216,0.114,2.969
	h0.097c0.94-2.344,1.676-4.054,2.21-5.122l4.794-9.391h4.156l-11.257,20.942c-0.981,1.8-2.052,3.116-3.208,3.95
	c-1.153,0.835-2.513,1.251-4.073,1.251c-0.829,0-1.607-0.103-2.34-0.309v-3.077c0.819,0.174,1.502,0.263,2.046,0.263
	c0.808,0,1.538-0.237,2.193-0.711c0.653-0.475,1.331-1.324,2.028-2.545l0.834-1.505L588.38,113.215z"/>
<path fill="#3E2680" d="M616.43,131.31l2.323-10.995c0.198-0.981,0.296-1.694,0.296-2.142c0-1.43-0.702-2.144-2.111-2.144
	c-0.785,0-1.559,0.311-2.323,0.932c-0.764,0.622-1.449,1.521-2.061,2.692c-0.61,1.173-1.069,2.501-1.374,3.984l-1.604,7.672h-3.861
	l3.861-18.095h3.011l-0.344,3.354h0.146c0.904-1.286,1.838-2.221,2.798-2.805s2.002-0.876,3.126-0.876
	c1.461,0,2.593,0.414,3.395,1.243c0.801,0.829,1.202,2.008,1.202,3.534c0,0.753-0.125,1.739-0.377,2.962l-2.241,10.683H616.43z"/>
<path fill="#3E2680" d="M633.015,131.638c-1.538,0-2.754-0.554-3.648-1.661s-1.342-2.664-1.342-4.671
	c0-2.202,0.378-4.265,1.137-6.185c0.757-1.92,1.803-3.438,3.132-4.557c1.332-1.116,2.793-1.677,4.387-1.677
	c1.058,0,1.969,0.249,2.73,0.745c0.765,0.496,1.358,1.218,1.784,2.169h0.162l1.016-2.587h2.945l-3.86,18.095h-2.979l0.346-2.879
	h-0.1C637,130.568,635.097,131.638,633.015,131.638z M634.421,128.53c0.895,0,1.774-0.423,2.634-1.268
	c0.861-0.847,1.573-1.977,2.129-3.395c0.556-1.42,0.832-2.968,0.832-4.647c0-0.959-0.255-1.73-0.769-2.315
	c-0.513-0.583-1.183-0.875-2.01-0.875c-0.929,0-1.801,0.42-2.621,1.261c-0.815,0.839-1.472,1.981-1.961,3.427
	c-0.492,1.445-0.737,2.942-0.737,4.491c0,1.112,0.222,1.944,0.662,2.493C633.022,128.255,633.636,128.53,634.421,128.53z"/>
<path fill="#3E2680" d="M660.869,112.888c2.399,0,3.784,1.281,4.157,3.845h0.13c0.817-1.266,1.748-2.223,2.789-2.872
	c1.043-0.648,2.124-0.973,3.247-0.973c1.451,0,2.557,0.418,3.314,1.251c0.756,0.835,1.138,2.011,1.138,3.526
	c0,0.698-0.122,1.685-0.36,2.962l-2.291,10.683h-3.846l2.34-10.995c0.207-1.036,0.311-1.76,0.311-2.176
	c0-1.406-0.659-2.109-1.979-2.109c-1.179,0-2.277,0.676-3.298,2.028s-1.764,3.147-2.232,5.383l-1.651,7.869h-3.846l2.338-10.995
	c0.187-0.892,0.28-1.586,0.28-2.077c0-1.472-0.64-2.208-1.915-2.208c-1.2,0-2.309,0.693-3.331,2.077
	c-1.019,1.387-1.773,3.23-2.266,5.531l-1.602,7.672h-3.862l3.862-18.095h3.012l-0.346,3.354h0.146
	C656.724,114.115,658.645,112.888,660.869,112.888z"/>
<path fill="#3E2680" d="M683.832,131.31h-3.86l3.86-18.095h3.846L683.832,131.31z M684.602,108.766c0-0.741,0.212-1.343,0.638-1.8
	s1.025-0.688,1.801-0.688c0.577,0,1.046,0.146,1.405,0.434c0.361,0.289,0.542,0.729,0.542,1.316c0,0.775-0.218,1.387-0.655,1.834
	c-0.437,0.447-1.009,0.669-1.718,0.669c-0.579,0-1.059-0.141-1.439-0.425C684.792,109.822,684.602,109.376,684.602,108.766z"/>
<path fill="#3E2680" d="M700.414,112.888c1.996,0,3.49,0.972,4.484,2.914h0.163l1.047-2.587h2.911l-5.562,26.144h-3.812l1.227-5.709
	c0.132-0.611,0.369-1.593,0.713-2.945c0.345-1.351,0.553-2.12,0.63-2.306h-0.132c-0.915,1.178-1.81,2.013-2.685,2.502
	c-0.871,0.492-1.798,0.737-2.778,0.737c-1.518,0-2.711-0.559-3.585-1.677c-0.872-1.119-1.309-2.671-1.309-4.655
	c0-2.269,0.398-4.379,1.195-6.332c0.796-1.952,1.846-3.453,3.15-4.508C697.375,113.417,698.821,112.888,700.414,112.888z
	 M698.238,128.53c0.872,0,1.739-0.441,2.602-1.325s1.558-2.047,2.086-3.486s0.793-2.904,0.793-4.4c0-1.025-0.247-1.828-0.744-2.413
	c-0.496-0.583-1.186-0.875-2.068-0.875c-0.938,0-1.812,0.424-2.62,1.268c-0.806,0.845-1.453,1.988-1.937,3.429
	c-0.486,1.439-0.729,2.934-0.729,4.482C695.62,127.422,696.493,128.53,698.238,128.53z"/>
<path fill="#3E2680" d="M719.843,113.215l-2.108,9.979c-0.34,1.538-0.508,2.593-0.508,3.158c0,1.451,0.691,2.177,2.078,2.177
	c0.785,0,1.565-0.312,2.339-0.934c0.774-0.621,1.462-1.508,2.062-2.658c0.6-1.151,1.062-2.5,1.389-4.049l1.62-7.674h3.812
	l-3.812,18.095h-3.025l0.343-3.353h-0.13c-0.896,1.266-1.828,2.193-2.798,2.789c-0.972,0.594-2.019,0.892-3.141,0.892
	c-1.462,0-2.593-0.414-3.389-1.243s-1.195-2.019-1.195-3.567c0-0.687,0.068-1.365,0.197-2.036c0.131-0.672,0.264-1.345,0.395-2.021
	l2.01-9.555H719.843z"/>
<path fill="#3E2680" d="M741.481,131.638c-2.148,0-3.825-0.605-5.029-1.816c-1.206-1.21-1.809-2.901-1.809-5.07
	c0-2.161,0.423-4.171,1.267-6.03c0.848-1.859,1.992-3.297,3.437-4.311c1.446-1.015,3.063-1.522,4.853-1.522
	c1.754,0,3.121,0.396,4.097,1.187c0.977,0.791,1.465,1.912,1.465,3.361c0,1.987-0.908,3.538-2.725,4.656
	c-1.814,1.116-4.403,1.677-7.763,1.677h-0.703l-0.034,0.507v0.476c0,1.209,0.309,2.158,0.926,2.845
	c0.615,0.688,1.535,1.03,2.757,1.03c0.785,0,1.563-0.103,2.339-0.31c0.775-0.206,1.691-0.562,2.75-1.062v3.059
	c-1.049,0.481-2.01,0.821-2.889,1.023C743.54,131.537,742.562,131.638,741.481,131.638z M743.969,115.834
	c-1.047,0-2.03,0.469-2.953,1.406c-0.922,0.938-1.585,2.176-1.987,3.714h0.476c2.051,0,3.652-0.291,4.809-0.875
	c1.157-0.584,1.734-1.411,1.734-2.479c0-0.556-0.175-0.989-0.522-1.3C745.175,115.989,744.656,115.834,743.969,115.834z"/>
</svg>
